<?xml version="1.0" encoding="UTF-8"?>
<!DOCTYPE svg PUBLIC "-//W3C//DTD SVG 1.1//EN" "http://www.w3.org/Graphics/SVG/1.1/DTD/svg11.dtd">
<!-- Creator: CorelDRAW 2020 (64 Bit) -->
<svg xmlns="http://www.w3.org/2000/svg" xml:space="preserve" width="17.9492mm" height="6.0112mm" version="1.1" style="shape-rendering:geometricPrecision; text-rendering:geometricPrecision; image-rendering:optimizeQuality; fill-rule:evenodd; clip-rule:evenodd"
viewBox="0 0 1794.92 601.12"
 xmlns:xlink="http://www.w3.org/1999/xlink"
 xmlns:xodm="http://www.corel.com/coreldraw/odm/2003">
 <defs>
  <style type="text/css">
   <![CDATA[
    .fil0 {fill:none}
    .fil2 {fill:#021A36;fill-rule:nonzero}
    .fil1 {fill:#465363;fill-rule:nonzero}
   ]]>
  </style>
 </defs>
 <g id="Camada_x0020_1">
  <metadata id="CorelCorpID_0Corel-Layer"/>
  <rect class="fil0" x="-0.01" y="4.21" width="1794.93" height="601.13"/>
  <g id="_498971831520">
   <path class="fil1" d="M721.73 410.37l0 -208.39 71.84 0c13.68,0 25.81,0.97 36.52,2.83 10.63,1.86 20.89,6.69 30.64,14.5 9.81,7.74 17.84,18.89 24.02,33.32 6.17,14.43 9.22,31.91 9.22,52.36 0,31.3 -7.44,56.74 -22.31,76.22 -14.88,19.41 -39.79,29.16 -74.82,29.16l-75.11 0zm27.67 -24.54l44.47 0c18.37,0 32.35,-2.68 42.09,-8.04 9.74,-5.43 17.18,-14.35 22.24,-26.92 5.13,-12.57 7.66,-28.03 7.66,-46.33 0,-12.79 -1.27,-23.95 -3.79,-33.54 -2.61,-9.6 -6.4,-17.7 -11.46,-24.25 -5.13,-6.46 -11.6,-11.52 -19.41,-15.02 -7.88,-3.49 -20.52,-5.2 -38,-5.2l-43.8 0 0 159.3zm246.93 24.54l0 -22.31c-11.53,17.25 -27.37,25.88 -47.6,25.88 -9.22,0 -17.18,-1.34 -23.87,-3.95 -6.69,-2.6 -12.12,-6.54 -16.36,-11.74 -4.17,-5.21 -6.99,-11.23 -8.48,-17.93 -1.56,-6.77 -2.31,-15.91 -2.31,-27.37l0 -93.4 25.44 0 0 83.51c0,13.09 0.44,21.94 1.41,26.48 0.89,4.53 2.68,8.55 5.13,11.82 2.53,3.35 5.8,5.88 9.82,7.66 4.01,1.71 8.85,2.61 14.5,2.61 10.04,0 18.15,-2.31 24.32,-6.85 6.17,-4.61 10.26,-10.48 12.27,-17.77 2.01,-7.22 3.05,-16.14 3.05,-26.7l0 -80.76 25.88 0 0 150.82 -23.2 0zm130.99 -18.74c-17.48,14.87 -36.07,22.31 -55.86,22.31 -15.69,0 -28.25,-3.87 -37.63,-11.68 -9.36,-7.81 -14.05,-18.37 -14.05,-31.76 0,-7.73 1.64,-14.57 4.98,-20.74 3.35,-6.1 8.93,-11.53 16.59,-16.22 7.73,-4.76 20.37,-8.18 37.92,-10.41 21.12,-2.6 36.37,-5.5 45.82,-8.7l0 -6.77c0,-20.45 -12.13,-30.71 -36.37,-30.71 -13.24,0 -22.54,2.45 -27.82,7.43 -5.35,4.99 -9.22,12.2 -11.67,21.57l-24.99 -3.27c6.54,-31.16 29.23,-46.7 68.05,-46.7 10.93,0 20.23,1.19 28.04,3.49 7.81,2.31 14.12,5.8 18.96,10.41 4.91,4.69 8.03,9.9 9.52,15.69 1.41,5.81 2.16,14.95 2.16,27.45l0 66.41c0,3.2 0.59,7.88 1.86,13.98 1.19,6.1 3.27,11.75 6.17,16.96l-26.77 0c-2.53,-5.36 -4.17,-11.61 -4.91,-18.74zm-2.23 -57.12c-9,3.64 -22.91,6.84 -41.73,9.59 -15.24,2.16 -25.06,5.43 -29.37,9.82 -4.39,4.39 -6.55,9.67 -6.55,15.91 0,16 10.12,24.03 30.27,24.03 7.07,0 13.46,-0.89 19.12,-2.75 5.65,-1.79 10.56,-4.62 14.65,-8.41 4.16,-3.79 7.43,-8.48 9.89,-14.06 2.45,-5.57 3.72,-13.83 3.72,-24.76l0 -9.37zm34.6 75.86l0 -208.39 25.44 0 0 208.39 -25.44 0z"/>
   <path class="fil2" d="M1211.63 339.85l41.05 -4.09c4.83,26.47 20.08,39.71 45.81,39.71 27.45,0 41.2,-9.44 41.2,-28.41 0,-7.14 -3.05,-12.57 -9.22,-16.21 -6.1,-3.64 -20.97,-8.48 -44.55,-14.58 -44.47,-11.08 -66.71,-31.9 -66.71,-62.24 0,-18.52 6.99,-32.8 20.98,-42.84 14.05,-10.04 32.5,-15.1 55.4,-15.1 52.06,0 78.76,20.97 80.25,62.99l-41.95 1.71c-3.35,-19.93 -16.28,-29.89 -38.82,-29.89 -23.8,0 -35.7,6.76 -35.7,20.23 0,4.46 2.09,8.62 6.25,12.64 4.24,4.01 17.33,8.85 39.34,14.43 35.18,9.07 56.74,19.11 64.7,30.04 7.96,10.93 11.98,23.8 11.98,38.6 0,42.91 -27.89,64.33 -83.67,64.33 -51.91,0 -80.69,-23.8 -86.34,-71.32zm196.11 -9.74c0,-21.2 7.14,-39.27 21.35,-54.15 14.2,-14.87 33.01,-22.31 56.44,-22.31 23.06,0 41.8,7.29 56.3,21.87 14.43,14.58 21.64,33.31 21.64,56.15 0,22.83 -7.29,41.64 -21.79,56.59 -14.5,14.95 -33.17,22.46 -55.93,22.46 -23.72,0 -42.61,-6.99 -56.74,-21.05 -14.2,-13.98 -21.27,-33.83 -21.27,-59.56zm41.05 1.93c0,13.76 3.2,24.84 9.67,33.32 6.47,8.55 15.54,12.79 27.14,12.79 11.61,0 20.68,-4.31 27.15,-12.87 6.47,-8.55 9.67,-19.71 9.67,-33.39 0,-13.76 -3.2,-24.77 -9.67,-33.1 -6.47,-8.4 -15.54,-12.56 -27.15,-12.56 -11.6,0 -20.67,4.24 -27.14,12.64 -6.47,8.48 -9.67,19.48 -9.67,33.17zm128.51 -75.26l22.31 0 0 -11.38c0,-33.17 15.4,-49.76 46.26,-49.76 11.23,0 22.31,1.64 33.17,4.99l-5.21 27.51c-6.39,-1.41 -12.49,-2.15 -18.44,-2.15 -10.71,0 -16.06,6.62 -16.06,19.93l0 10.86 29.9 0 0 31.23 -29.9 0 0 119.59 -39.72 0 0 -119.59 -22.31 0 0 -31.23zm183.55 0l0 31.68 -27.22 0 0 60.91c0,12.19 0.74,20.07 2.16,23.57 1.48,3.5 4.31,5.21 8.7,5.21 3.72,0 9.07,-1.34 15.99,-4.02l3.49 30.57c-9.22,4.01 -19.71,6.02 -31.46,6.02 -16.5,0 -27.14,-4.16 -31.9,-12.49 -4.76,-8.33 -7.14,-23.06 -7.14,-44.18l0 -65.59 -18.29 0 0 -31.68 18.29 0 0 -30.27 40.16 -23.28 0 53.55 27.22 0z"/>
   <path class="fil2" d="M54.71 284.25l-23.76 -72.43 278.81 -204.27c4.28,-0.72 8.58,-1.15 12.88,-1.28 8.35,-0.09 16.52,2.05 24.5,6.42 6.32,3.19 15.02,12.41 26.1,27.68 1.71,2.35 2.86,4.21 3.45,5.57l47.53 143.57 114.35 -83.04c6.03,-4.38 10.89,-4.02 14.59,1.06 1.7,2.35 9.35,22.81 22.94,61.38l-147.99 107.47c-1.04,1.02 -2.17,1.97 -3.37,2.84l-132.18 95.6 -38.61 28.03 -0.03 -0.09 -127.75 92.39c-0.07,-1.74 -4.79,-16.25 -14.18,-43.52l-45.07 -133.2 63.3 -46.86 35.91 104.88 188.01 -136.54c4.98,-3.62 5.96,-9.72 2.94,-18.28l-38.24 -113.05c-5.64,-6.67 -10.29,-8.67 -13.96,-6l-250.17 181.67zm209.81 152.18l269.41 -196.54c8.12,-5.9 19.55,-6.72 34.26,-2.46 12.26,3.65 20.37,7.93 24.33,12.83l20.4 26.44 20.45 59.59c10.55,29.42 0.61,55.17 -29.81,77.26l-263.6 189.63c-7.78,0.87 -15.45,-2.53 -23.02,-10.19l-16.15 -52.85 259.67 -186.78c2.36,-8.88 2.68,-18.09 0.97,-27.61 -4.79,-5.49 -8.75,-7.09 -11.9,-4.81l-229.32 166.53c-5.24,3.81 -11.03,6.97 -22.23,0.69 -9.71,-5.43 -13.03,-8.97 -16.44,-13.66 -1.99,-2.74 -14.92,-15.9 -16.78,-22.32 -1.86,-6.42 -2.76,-11.07 -0.24,-15.75z"/>
  </g>
 </g>
</svg>
